<svg width="20" height="20" viewBox="0 0 20 20" fill="none" xmlns="http://www.w3.org/2000/svg">
<path d="M15.8333 6.66669H4.16667C3.24619 6.66669 2.5 7.41288 2.5 8.33335V16.6667C2.5 17.5872 3.24619 18.3334 4.16667 18.3334H15.8333C16.7538 18.3334 17.5 17.5872 17.5 16.6667V8.33335C17.5 7.41288 16.7538 6.66669 15.8333 6.66669Z" stroke="#090909" stroke-linecap="round" stroke-linejoin="round"/>
<path d="M10 4.16669C10 3.67223 9.85338 3.18889 9.57867 2.77776C9.30397 2.36664 8.91352 2.04621 8.45671 1.85699C7.99989 1.66777 7.49723 1.61826 7.01227 1.71472C6.52732 1.81119 6.08187 2.04929 5.73223 2.39892C5.3826 2.74855 5.1445 3.19401 5.04804 3.67896C4.95157 4.16391 5.00108 4.66658 5.1903 5.1234C5.37952 5.58021 5.69995 5.97066 6.11108 6.24536C6.5222 6.52007 7.00555 6.66669 7.5 6.66669" stroke="#090909" stroke-linecap="round" stroke-linejoin="round"/>
<path d="M12.5 6.66669C12.9945 6.66669 13.4778 6.52007 13.8889 6.24536C14.3 5.97066 14.6205 5.58021 14.8097 5.1234C14.9989 4.66658 15.0484 4.16391 14.952 3.67896C14.8555 3.19401 14.6174 2.74855 14.2678 2.39892C13.9181 2.04929 13.4727 1.81119 12.9877 1.71472C12.5028 1.61826 12.0001 1.66777 11.5433 1.85699C11.0865 2.04621 10.696 2.36664 10.4213 2.77776C10.1466 3.18889 10 3.67223 10 4.16669" stroke="#090909" stroke-linecap="round" stroke-linejoin="round"/>
<path d="M10 4.16669V18.3334" stroke="#090909" stroke-linecap="round" stroke-linejoin="round"/>
<path d="M17.5 12.5H2.5" stroke="#090909" stroke-linecap="round" stroke-linejoin="round"/>
</svg>
