<svg width="451" height="1064" viewBox="0 0 451 1064" fill="none" xmlns="http://www.w3.org/2000/svg">
<line x1="0.5" y1="2.18557e-08" x2="0.499953" y2="1064" stroke="#E6E1F5"/>
<line x1="0.5" y1="2.18557e-08" x2="0.499953" y2="1064" stroke="url(#paint0_linear)"/>
<line x1="0.5" y1="2.18557e-08" x2="0.499953" y2="1064" stroke="url(#paint1_linear)"/>
<line x1="150.5" y1="2.18557e-08" x2="150.5" y2="1064" stroke="#E6E1F5"/>
<line x1="150.5" y1="2.18557e-08" x2="150.5" y2="1064" stroke="url(#paint2_linear)"/>
<line x1="150.5" y1="2.18557e-08" x2="150.5" y2="1064" stroke="url(#paint3_linear)"/>
<line x1="300.5" y1="2.18557e-08" x2="300.5" y2="1064" stroke="#E6E1F5"/>
<line x1="300.5" y1="2.18557e-08" x2="300.5" y2="1064" stroke="url(#paint4_linear)"/>
<line x1="300.5" y1="2.18557e-08" x2="300.5" y2="1064" stroke="url(#paint5_linear)"/>
<line x1="450.5" y1="2.18557e-08" x2="450.5" y2="1064" stroke="#E6E1F5"/>
<line x1="450.5" y1="2.18557e-08" x2="450.5" y2="1064" stroke="url(#paint6_linear)"/>
<line x1="450.5" y1="2.18557e-08" x2="450.5" y2="1064" stroke="url(#paint7_linear)"/>
<defs>
<linearGradient id="paint0_linear" x1="0" y1="1064" x2="2.8177e-06" y2="772" gradientUnits="userSpaceOnUse">
<stop stop-color="white"/>
<stop offset="1" stop-color="white" stop-opacity="0"/>
</linearGradient>
<linearGradient id="paint1_linear" x1="0" y1="0" x2="-2.27248e-06" y2="235.5" gradientUnits="userSpaceOnUse">
<stop stop-color="white"/>
<stop offset="1" stop-color="white" stop-opacity="0"/>
</linearGradient>
<linearGradient id="paint2_linear" x1="150" y1="956" x2="150" y2="690.5" gradientUnits="userSpaceOnUse">
<stop stop-color="white"/>
<stop offset="1" stop-color="white" stop-opacity="0"/>
</linearGradient>
<linearGradient id="paint3_linear" x1="150" y1="0" x2="150" y2="235.5" gradientUnits="userSpaceOnUse">
<stop stop-color="white"/>
<stop offset="1" stop-color="white" stop-opacity="0"/>
</linearGradient>
<linearGradient id="paint4_linear" x1="300" y1="942.5" x2="300" y2="655.5" gradientUnits="userSpaceOnUse">
<stop stop-color="white"/>
<stop offset="1" stop-color="white" stop-opacity="0"/>
</linearGradient>
<linearGradient id="paint5_linear" x1="300" y1="0" x2="300" y2="235.5" gradientUnits="userSpaceOnUse">
<stop stop-color="white"/>
<stop offset="1" stop-color="white" stop-opacity="0"/>
</linearGradient>
<linearGradient id="paint6_linear" x1="450" y1="1064" x2="450" y2="772" gradientUnits="userSpaceOnUse">
<stop stop-color="white"/>
<stop offset="1" stop-color="white" stop-opacity="0"/>
</linearGradient>
<linearGradient id="paint7_linear" x1="450" y1="0" x2="450" y2="235.5" gradientUnits="userSpaceOnUse">
<stop stop-color="white"/>
<stop offset="1" stop-color="white" stop-opacity="0"/>
</linearGradient>
</defs>
</svg>
