<svg width="381" height="895" viewBox="0 0 381 895" fill="none" xmlns="http://www.w3.org/2000/svg">
<line x1="1.47559" y1="2.18557e-08" x2="1.47555" y2="895" stroke="#E6E1F5"/>
<line x1="1.47559" y1="2.18557e-08" x2="1.47555" y2="895" stroke="url(#paint0_linear)"/>
<line x1="1.47559" y1="2.18557e-08" x2="1.47555" y2="895" stroke="url(#paint1_linear)"/>
<line x1="127.65" y1="2.18557e-08" x2="127.65" y2="895" stroke="#E6E1F5"/>
<line x1="127.65" y1="2.18557e-08" x2="127.65" y2="895" stroke="url(#paint2_linear)"/>
<line x1="127.65" y1="2.18557e-08" x2="127.65" y2="895" stroke="url(#paint3_linear)"/>
<line x1="253.825" y1="2.18557e-08" x2="253.825" y2="895" stroke="#E6E1F5"/>
<line x1="253.825" y1="2.18557e-08" x2="253.825" y2="895" stroke="url(#paint4_linear)"/>
<line x1="253.825" y1="2.18557e-08" x2="253.825" y2="895" stroke="url(#paint5_linear)"/>
<line x1="380" y1="2.18557e-08" x2="380" y2="895" stroke="#E6E1F5"/>
<line x1="380" y1="2.18557e-08" x2="380" y2="895" stroke="url(#paint6_linear)"/>
<line x1="380" y1="2.18557e-08" x2="380" y2="895" stroke="url(#paint7_linear)"/>
<defs>
<linearGradient id="paint0_linear" x1="0.975593" y1="895" x2="0.975597" y2="649.38" gradientUnits="userSpaceOnUse">
<stop stop-color="white"/>
<stop offset="1" stop-color="white" stop-opacity="0"/>
</linearGradient>
<linearGradient id="paint1_linear" x1="0.975586" y1="0" x2="0.975583" y2="198.094" gradientUnits="userSpaceOnUse">
<stop stop-color="white"/>
<stop offset="1" stop-color="white" stop-opacity="0"/>
</linearGradient>
<linearGradient id="paint2_linear" x1="127.15" y1="804.154" x2="127.15" y2="580.825" gradientUnits="userSpaceOnUse">
<stop stop-color="white"/>
<stop offset="1" stop-color="white" stop-opacity="0"/>
</linearGradient>
<linearGradient id="paint3_linear" x1="127.15" y1="0" x2="127.15" y2="198.094" gradientUnits="userSpaceOnUse">
<stop stop-color="white"/>
<stop offset="1" stop-color="white" stop-opacity="0"/>
</linearGradient>
<linearGradient id="paint4_linear" x1="253.325" y1="792.798" x2="253.325" y2="551.384" gradientUnits="userSpaceOnUse">
<stop stop-color="white"/>
<stop offset="1" stop-color="white" stop-opacity="0"/>
</linearGradient>
<linearGradient id="paint5_linear" x1="253.325" y1="0" x2="253.325" y2="198.094" gradientUnits="userSpaceOnUse">
<stop stop-color="white"/>
<stop offset="1" stop-color="white" stop-opacity="0"/>
</linearGradient>
<linearGradient id="paint6_linear" x1="379.5" y1="895" x2="379.5" y2="649.38" gradientUnits="userSpaceOnUse">
<stop stop-color="white"/>
<stop offset="1" stop-color="white" stop-opacity="0"/>
</linearGradient>
<linearGradient id="paint7_linear" x1="379.5" y1="0" x2="379.5" y2="198.094" gradientUnits="userSpaceOnUse">
<stop stop-color="white"/>
<stop offset="1" stop-color="white" stop-opacity="0"/>
</linearGradient>
</defs>
</svg>
