<svg width="340" height="541" viewBox="0 0 340 541" fill="none" xmlns="http://www.w3.org/2000/svg">
<line x1="0.5" y1="2.18557e-08" x2="0.499976" y2="541" stroke="#E6E1F5"/>
<line x1="0.5" y1="2.18557e-08" x2="0.499976" y2="541" stroke="url(#paint0_linear)"/>
<line x1="0.5" y1="2.18557e-08" x2="0.499976" y2="541" stroke="url(#paint1_linear)"/>
<line x1="113.5" y1="1.67439e-08" x2="113.5" y2="541" stroke="#E6E1F5"/>
<line x1="113.5" y1="1.67439e-08" x2="113.5" y2="541" stroke="url(#paint2_linear)"/>
<line x1="113.5" y1="1.67439e-08" x2="113.5" y2="541" stroke="url(#paint3_linear)"/>
<line x1="226.5" y1="1.67439e-08" x2="226.5" y2="541" stroke="#E6E1F5"/>
<line x1="226.5" y1="1.67439e-08" x2="226.5" y2="541" stroke="url(#paint4_linear)"/>
<line x1="226.5" y1="1.67439e-08" x2="226.5" y2="541" stroke="url(#paint5_linear)"/>
<line x1="339.5" y1="1.67439e-08" x2="339.5" y2="541" stroke="#E6E1F5"/>
<line x1="339.5" y1="1.67439e-08" x2="339.5" y2="541" stroke="url(#paint6_linear)"/>
<line x1="339.5" y1="1.67439e-08" x2="339.5" y2="541" stroke="url(#paint7_linear)"/>
<defs>
<linearGradient id="paint0_linear" x1="2.28611e-05" y1="541" x2="2.67795e-05" y2="392.53" gradientUnits="userSpaceOnUse">
<stop stop-color="white"/>
<stop offset="1" stop-color="white" stop-opacity="0"/>
</linearGradient>
<linearGradient id="paint1_linear" x1="0" y1="0" x2="-3.16028e-06" y2="119.742" gradientUnits="userSpaceOnUse">
<stop stop-color="white"/>
<stop offset="1" stop-color="white" stop-opacity="0"/>
</linearGradient>
<linearGradient id="paint2_linear" x1="113" y1="486.086" x2="113" y2="351.091" gradientUnits="userSpaceOnUse">
<stop stop-color="white"/>
<stop offset="1" stop-color="white" stop-opacity="0"/>
</linearGradient>
<linearGradient id="paint3_linear" x1="113" y1="0" x2="113" y2="119.742" gradientUnits="userSpaceOnUse">
<stop stop-color="white"/>
<stop offset="1" stop-color="white" stop-opacity="0"/>
</linearGradient>
<linearGradient id="paint4_linear" x1="226" y1="479.222" x2="226" y2="333.295" gradientUnits="userSpaceOnUse">
<stop stop-color="white"/>
<stop offset="1" stop-color="white" stop-opacity="0"/>
</linearGradient>
<linearGradient id="paint5_linear" x1="226" y1="0" x2="226" y2="119.742" gradientUnits="userSpaceOnUse">
<stop stop-color="white"/>
<stop offset="1" stop-color="white" stop-opacity="0"/>
</linearGradient>
<linearGradient id="paint6_linear" x1="339" y1="541" x2="339" y2="392.53" gradientUnits="userSpaceOnUse">
<stop stop-color="white"/>
<stop offset="1" stop-color="white" stop-opacity="0"/>
</linearGradient>
<linearGradient id="paint7_linear" x1="339" y1="0" x2="339" y2="119.742" gradientUnits="userSpaceOnUse">
<stop stop-color="white"/>
<stop offset="1" stop-color="white" stop-opacity="0"/>
</linearGradient>
</defs>
</svg>
