<svg width="261" height="683" viewBox="0 0 261 683" fill="none" xmlns="http://www.w3.org/2000/svg">
<line x1="0.5" y1="2.18557e-08" x2="0.49997" y2="682.076" stroke="#E6E1F5"/>
<line x1="0.5" y1="2.18557e-08" x2="0.49997" y2="682.076" stroke="url(#paint0_linear)"/>
<line x1="0.5" y1="2.18557e-08" x2="0.49997" y2="682.076" stroke="url(#paint1_linear)"/>
<line x1="87.0703" y1="2.18557e-08" x2="87.0703" y2="682.076" stroke="#E6E1F5"/>
<line x1="87.0703" y1="2.18557e-08" x2="87.0703" y2="682.076" stroke="url(#paint2_linear)"/>
<line x1="87.0703" y1="2.18557e-08" x2="87.0703" y2="682.076" stroke="url(#paint3_linear)"/>
<line x1="173.641" y1="2.18557e-08" x2="173.641" y2="682.076" stroke="#E6E1F5"/>
<line x1="173.641" y1="2.18557e-08" x2="173.641" y2="682.076" stroke="url(#paint4_linear)"/>
<line x1="173.641" y1="2.18557e-08" x2="173.641" y2="682.076" stroke="url(#paint5_linear)"/>
<line x1="260.213" y1="2.18557e-08" x2="260.213" y2="682.076" stroke="#E6E1F5"/>
<line x1="260.213" y1="2.18557e-08" x2="260.213" y2="682.076" stroke="url(#paint6_linear)"/>
<line x1="260.213" y1="2.18557e-08" x2="260.213" y2="682.076" stroke="url(#paint7_linear)"/>
<defs>
<linearGradient id="paint0_linear" x1="1.66945e-05" y1="682.076" x2="2.07894e-05" y2="494.889" gradientUnits="userSpaceOnUse">
<stop stop-color="white"/>
<stop offset="1" stop-color="white" stop-opacity="0"/>
</linearGradient>
<linearGradient id="paint1_linear" x1="0" y1="0" x2="-3.30257e-06" y2="150.967" gradientUnits="userSpaceOnUse">
<stop stop-color="white"/>
<stop offset="1" stop-color="white" stop-opacity="0"/>
</linearGradient>
<linearGradient id="paint2_linear" x1="86.5703" y1="612.842" x2="86.5703" y2="442.644" gradientUnits="userSpaceOnUse">
<stop stop-color="white"/>
<stop offset="1" stop-color="white" stop-opacity="0"/>
</linearGradient>
<linearGradient id="paint3_linear" x1="86.5703" y1="0" x2="86.5703" y2="150.967" gradientUnits="userSpaceOnUse">
<stop stop-color="white"/>
<stop offset="1" stop-color="white" stop-opacity="0"/>
</linearGradient>
<linearGradient id="paint4_linear" x1="173.141" y1="604.188" x2="173.141" y2="420.207" gradientUnits="userSpaceOnUse">
<stop stop-color="white"/>
<stop offset="1" stop-color="white" stop-opacity="0"/>
</linearGradient>
<linearGradient id="paint5_linear" x1="173.141" y1="0" x2="173.141" y2="150.967" gradientUnits="userSpaceOnUse">
<stop stop-color="white"/>
<stop offset="1" stop-color="white" stop-opacity="0"/>
</linearGradient>
<linearGradient id="paint6_linear" x1="259.713" y1="682.076" x2="259.713" y2="494.889" gradientUnits="userSpaceOnUse">
<stop stop-color="white"/>
<stop offset="1" stop-color="white" stop-opacity="0"/>
</linearGradient>
<linearGradient id="paint7_linear" x1="259.713" y1="0" x2="259.713" y2="150.967" gradientUnits="userSpaceOnUse">
<stop stop-color="white"/>
<stop offset="1" stop-color="white" stop-opacity="0"/>
</linearGradient>
</defs>
</svg>
